<?xml version="1.0" encoding="UTF-8" standalone="no"?>
<svg
   xmlns:dc="http://purl.org/dc/elements/1.1/"
   xmlns:cc="http://creativecommons.org/ns#"
   xmlns:rdf="http://www.w3.org/1999/02/22-rdf-syntax-ns#"
   xmlns:svg="http://www.w3.org/2000/svg"
   xmlns="http://www.w3.org/2000/svg"
   width="300"
   height="250"
   viewBox="0 0 79.374999 66.145835"
   version="1.1"
   id="svg6513">
  <defs
     id="defs6507" />
  <metadata
     id="metadata6510">
    <rdf:RDF>
      <cc:Work
         rdf:about="">
        <dc:format>image/svg+xml</dc:format>
        <dc:type
           rdf:resource="http://purl.org/dc/dcmitype/StillImage" />
        <dc:title></dc:title>
      </cc:Work>
    </rdf:RDF>
  </metadata>
  <g
     id="g32844"
     transform="matrix(0.23788705,0,0,0.2378284,-206.95472,-809.61653)"
     style="stroke-width:1.11236">
    <circle
       style="fill:none;stroke:#000000;stroke-width:3.33708;stroke-linecap:round;stroke-miterlimit:4;stroke-dasharray:none;stroke-dashoffset:0"
       id="circle32534"
       cx="-3543.2673"
       cy="1042.0291"
       r="108.90545"
       transform="rotate(-90)" />
    <path
       style="fill:none;stroke:#000000;stroke-width:1.11236;stroke-linecap:butt;stroke-linejoin:miter;stroke-opacity:1"
       d="M 976.35609,3657.0195 1107.7063,3429.5139"
       id="path32536" />
    <path
       style="fill:none;stroke:#000000;stroke-width:1.11236;stroke-linecap:butt;stroke-linejoin:miter;stroke-opacity:1"
       d="m 910.6807,3543.2669 262.7009,-2e-4"
       id="path32538" />
    <path
       style="fill:none;stroke:#000000;stroke-width:1.11236;stroke-linecap:butt;stroke-linejoin:miter;stroke-opacity:1"
       d="M 1107.7065,3657.0195 976.35596,3429.5141"
       id="path32540" />
    <circle
       style="fill:#000000;stroke:none;stroke-width:1.11236;stroke-linecap:round;stroke-miterlimit:4;stroke-dasharray:none;stroke-dashoffset:0"
       id="circle32542"
       cx="37.410915"
       cy="-3658.2305"
       r="10.457375"
       transform="rotate(165)" />
    <circle
       style="fill:none;stroke:#000000;stroke-width:1.11233;stroke-linecap:round;stroke-miterlimit:4;stroke-dasharray:none;stroke-dashoffset:0"
       id="circle32544"
       cx="-39.010643"
       cy="-3641.7739"
       r="10.457371"
       transform="rotate(165)" />
    <path
       style="fill:#000000;stroke:none;stroke-width:1.11236;stroke-linecap:round;stroke-miterlimit:4;stroke-dasharray:none;stroke-dashoffset:0"
       id="path32546"
       transform="scale(1,-1)"
       d="m 1053.3874,-3464.86 -11.3561,0 -11.3562,0 5.6781,-9.8347 5.6781,-9.8348 5.678,9.8348 z" />
    <path
       style="fill:#000000;stroke:none;stroke-width:8.24693;stroke-linecap:round;stroke-miterlimit:4;stroke-dasharray:none;stroke-dashoffset:0"
       id="path32548"
       transform="matrix(-0.22058563,0.33923712,-0.33923712,-0.22058563,-43.46281,2855.1056)"
       d="m -6.7066461,-3362.5998 -20.2752439,17.792 3.162274,26.7888 -23.186587,-13.7849 -24.500481,11.2857 5.945145,-26.3115 -18.304404,-19.8139 26.860889,-2.4765 13.187737,-23.5314 10.655797,24.781 z" />
    <path
       style="fill:none;stroke:#000000;stroke-width:1.11236;stroke-linecap:round;stroke-miterlimit:4;stroke-dasharray:none;stroke-dashoffset:0"
       id="path32556"
       transform="scale(-1,1)"
       d="m -1030.6751,3621.2511 -11.3561,0 -11.3562,0 5.6781,-9.8348 5.6781,-9.8347 5.678,9.8347 z" />
    <rect
       style="fill:none;stroke:#000000;stroke-width:1.11236;stroke-linecap:round;stroke-miterlimit:4;stroke-dasharray:none;stroke-dashoffset:0"
       id="rect32558"
       width="18.784975"
       height="18.784975"
       x="-3588.335"
       y="970.84454"
       transform="rotate(-90)" />
    <path
       style="fill:none;stroke:#000000;stroke-width:2.74895;stroke-linecap:round;stroke-miterlimit:4;stroke-dasharray:none;stroke-dashoffset:0"
       id="path32560"
       transform="matrix(-0.22058563,0.33923712,-0.33923712,-0.22058563,-43.46283,2783.7551)"
       d="m -6.7066461,-3362.5998 -20.2752439,17.792 3.162274,26.7888 -23.186587,-13.7849 -24.500481,11.2857 5.945145,-26.3115 -18.304404,-19.8139 26.860889,-2.4765 13.187737,-23.5314 10.655797,24.781 z" />
  </g>
</svg>
